<?xml version="1.0" encoding="UTF-8"?>
<svg id="Capa_1" xmlns="http://www.w3.org/2000/svg" version="1.1" viewBox="0 0 10.6 10.6">
  <!-- Generator: Adobe Illustrator 29.0.0, SVG Export Plug-In . SVG Version: 2.1.0 Build 186)  -->
  <defs>
    <style>
      .st0 {
        fill: #fff;
      }

      .st1 {
        fill: #1a4089;
      }

      .st2 {
        fill: #78b833;
      }
    </style>
  </defs>
  <circle class="st2" cx="5.28" cy="5.3" r="5"/>
  <path class="st1" d="M5.86,10.26c-2.74.32-5.22-1.64-5.54-4.38S1.96.66,4.7.34"/>
  <g>
    <path class="st0" d="M5.42,8.07c-.68,0-1.35,0-2.03,0q-.1,0-.09-.1c.05-.42.38-.72.81-.72.89,0,1.77,0,2.66,0,.4,0,.76.35.78.74,0,.07-.01.09-.09.09-.68,0-1.36,0-2.04,0,0,0,0,0,0,0Z"/>
    <path class="st0" d="M5.38,8.62c-.87,0-1.74,0-2.62,0-.16,0-.22-.08-.17-.24.05-.15.17-.23.34-.23,1.59,0,3.18,0,4.77,0,.07,0,.14,0,.21,0,.18.02.31.19.28.36,0,.03-.04.07-.07.08-.04.02-.08.01-.13.01-.87,0-1.74,0-2.62,0Z"/>
    <path class="st0" d="M5.93,3.26c0,.14.06.26.15.36.03.03.05.05.02.1-.03.04-.01.09.04.11.05.02.1.02.12-.03.04-.09.11-.06.17-.06,0,0,.02.02.02.03,0,.02-.01.03-.02.04-.12.23-.24.47-.35.7-.03.07-.06.07-.13.04-.26-.13-.52-.26-.78-.39-.14-.07-.15-.09-.08-.23.32-.64.64-1.29.96-1.93.06-.12.08-.13.2-.06.25.13.49.26.74.38.06.03.08.07.04.13-.06.11-.11.22-.17.33-.02.04-.02.07.03.08.04.01.07.02.1.05.02.02.04.06.03.09-.01.03-.04.06-.07.08-.02-.02-.04-.05-.05-.07-.1-.2-.33-.3-.56-.25-.24.06-.41.26-.41.49Z"/>
    <path class="st0" d="M6.97,3.15c.08.06.17.11.25.17,1.14.96.94,2.74-.41,3.42-.2.1-.42.15-.62.23-.05.02-.06,0-.06-.05,0-.07,0-.15,0-.23,0-.06.02-.08.07-.1.16-.06.32-.11.46-.19.49-.27.81-.67.9-1.23.11-.66-.12-1.19-.63-1.61-.04-.04-.05-.06-.03-.11.03-.1.05-.2.07-.31Z"/>
    <path class="st0" d="M4.5,5.92c-.34,0-.68,0-1.01,0-.06,0-.09-.02-.11-.08-.02-.06-.05-.12-.07-.18-.03-.05,0-.07.05-.08.02,0,.04,0,.06,0,.74,0,1.48,0,2.21,0,.12,0,.12.01.08.12q-.09.22-.33.22c-.29,0-.58,0-.87,0,0,0,0,0,0,0Z"/>
    <path class="st0" d="M6.02,3.27c0-.25.18-.43.43-.43.23,0,.41.18.41.41,0,.23-.19.41-.44.41-.23,0-.39-.16-.39-.4Z"/>
    <path class="st0" d="M5.61,6.55c.12,0,.25,0,.37,0,.04,0,.06.01.06.05,0,.17,0,.34,0,.51,0,.04-.02.05-.06.05-.24,0-.49,0-.73,0-.04,0-.06-.02-.06-.06,0-.17,0-.33,0-.5,0-.05.02-.06.07-.06.12,0,.24,0,.35,0h0Z"/>
    <path class="st0" d="M5.11,6.77s0,.1,0,.14c0,.05-.01.06-.06.04-.34-.14-.67-.3-.93-.57-.09-.1-.16-.22-.24-.33-.03-.04-.01-.06.03-.05.1,0,.2,0,.3.01.04,0,.07.03.1.05.15.12.29.24.44.35.09.06.19.09.29.13.04.01.06.03.06.08,0,.05,0,.1,0,.15h0Z"/>
    <path class="st0" d="M7.54,1.75c-.04.08-.08.15-.12.22,0,.01-.05,0-.07,0-.18-.09-.36-.17-.54-.27-.16-.08-.31-.17-.47-.26-.06-.03-.07-.06-.04-.12.09-.19.1-.2.29-.1.29.16.58.31.87.46.03.02.05.04.09.06Z"/>
    <path class="st0" d="M5.69,6.46c-.18,0-.36,0-.54,0-.04,0-.08,0-.1-.03-.02-.02-.04-.06-.04-.09,0-.03.04-.05.07-.06.03-.01.07,0,.11,0,.36,0,.71,0,1.07,0,.06,0,.14-.02.15.08,0,.06-.05.11-.15.11-.19,0-.38,0-.57,0h0Z"/>
    <path class="st0" d="M5.13,4.65c.05-.1.09-.2.14-.31,0,0,.03-.01.05,0,.17.08.33.17.5.26,0,0,.01.03,0,.04-.03.07-.06.14-.1.2-.05.08-.12.1-.21.07-.09-.04-.18-.07-.27-.11-.06-.02-.1-.06-.11-.14Z"/>
    <path class="st0" d="M7.09,1.97c-.05.08-.09.16-.13.23,0,0-.03,0-.04,0-.16-.07-.31-.15-.47-.23-.05-.02-.06-.05-.03-.1.04-.06.07-.17.12-.19.05-.02.14.05.21.09.09.05.19.09.28.14.02.01.04.03.07.06Z"/>
    <path class="st0" d="M6.51,3.75c.1-.05.19-.09.3-.14,0,.09-.04.17-.12.2-.05.02-.13-.02-.19-.03,0,0,0-.02,0-.03Z"/>
  </g>
</svg>